<svg width="59.948242" height="49.343018" viewBox="0 0 59.9482 49.343" fill="none" xmlns="http://www.w3.org/2000/svg" xmlns:xlink="http://www.w3.org/1999/xlink">
	<desc>
			Created with Pixso.
	</desc>
	<defs/>
	<path d="M17.22 32.62L27.41 32.62C28.29 32.62 29 31.91 29 31.03C29 30.15 28.29 29.44 27.41 29.44L21.06 29.44L27.02 23.48C28.3 22.2 29 20.5 29 18.69C29 16.88 28.3 15.18 27.02 13.91C25.74 12.63 24.04 11.92 22.23 11.92C20.42 11.92 18.72 12.63 17.44 13.91C16.82 14.53 16.82 15.54 17.44 16.16C18.06 16.78 19.07 16.78 19.69 16.16C20.37 15.48 21.27 15.11 22.23 15.11C23.19 15.11 24.09 15.48 24.77 16.16C25.44 16.83 25.82 17.74 25.82 18.69C25.82 19.65 25.44 20.55 24.77 21.23L16.09 29.9C15.64 30.36 15.5 31.04 15.75 31.64C15.99 32.23 16.57 32.62 17.22 32.62Z" fill="#111111" fill-opacity="1.000000" fill-rule="nonzero"/>
	<path d="M42.72 29.44L41.37 29.44L41.37 26.24C41.37 25.36 40.65 24.65 39.77 24.65C38.9 24.65 38.18 25.36 38.18 26.24L38.18 29.44L34.37 29.44L41.23 14.17C41.59 13.37 41.23 12.42 40.43 12.06C39.62 11.7 38.68 12.06 38.32 12.86L30.46 30.38C30.24 30.87 30.28 31.44 30.57 31.89C30.87 32.35 31.37 32.62 31.91 32.62L38.18 32.62L38.18 35.82C38.18 36.7 38.9 37.41 39.77 37.41C40.65 37.41 41.37 36.7 41.37 35.82L41.37 32.62L42.72 32.62C43.6 32.62 44.31 31.91 44.31 31.03C44.31 30.15 43.6 29.44 42.72 29.44Z" fill="#333333" fill-opacity="1.000000" fill-rule="nonzero"/>
	<path d="M59.73 23.87C59.45 23.38 58.92 23.08 58.35 23.08L54.59 23.08C54.21 17.08 51.7 11.5 47.41 7.22C42.75 2.56 36.56 0 29.97 0C29.09 0 28.38 0.71 28.38 1.59C28.38 2.47 29.09 3.18 29.97 3.18C41.28 3.18 50.58 11.97 51.4 23.08L47.75 23.08C47.18 23.08 46.65 23.38 46.37 23.87C46.08 24.36 46.08 24.97 46.37 25.46L51.67 34.65C51.96 35.14 52.48 35.44 53.05 35.44C53.62 35.44 54.14 35.14 54.43 34.65L59.73 25.46C60.01 24.97 60.01 24.36 59.73 23.87ZM53.05 30.67L50.5 26.26L55.59 26.26L53.05 30.67Z" fill="#111111" fill-opacity="1.000000" fill-rule="nonzero"/>
	<path d="M25 3.18C25.42 3.18 25.83 3.01 26.13 2.71C26.42 2.42 26.59 2.01 26.59 1.59C26.59 1.17 26.42 0.76 26.13 0.46C25.83 0.16 25.42 0 25 0C24.58 0 24.17 0.16 23.88 0.46C23.58 0.76 23.41 1.17 23.41 1.59C23.41 2.01 23.58 2.42 23.88 2.71C24.17 3.01 24.58 3.18 25 3.18Z" fill="#111111" fill-opacity="1.000000" fill-rule="nonzero"/>
	<path d="M20.23 3.18C20.64 3.18 21.06 3.01 21.35 2.71C21.65 2.42 21.82 2.01 21.82 1.59C21.82 1.17 21.65 0.76 21.35 0.46C21.06 0.16 20.64 0 20.23 0C19.81 0 19.4 0.16 19.1 0.46C18.8 0.76 18.63 1.17 18.63 1.59C18.63 2.01 18.8 2.42 19.1 2.71C19.4 3.01 19.81 3.18 20.23 3.18Z" fill="#111111" fill-opacity="1.000000" fill-rule="nonzero"/>
	<path d="M29.97 46.15C24.23 46.15 18.83 43.92 14.78 39.86C11.09 36.18 8.91 31.4 8.54 26.26L12.19 26.26C12.19 26.26 12.19 26.26 12.19 26.26C13.07 26.26 13.79 25.55 13.79 24.67C13.79 24.35 13.69 24.06 13.54 23.81L8.27 14.69C7.98 14.19 7.46 13.89 6.89 13.89C6.32 13.89 5.8 14.19 5.51 14.69L0.21 23.87C-0.08 24.36 -0.08 24.97 0.21 25.46C0.49 25.96 1.02 26.26 1.59 26.26L5.35 26.26C5.73 32.25 8.24 37.83 12.52 42.11C17.18 46.77 23.38 49.34 29.97 49.34C30.85 49.34 31.56 48.63 31.56 47.75C31.56 46.87 30.85 46.15 29.97 46.15ZM6.89 18.67L9.44 23.07L4.34 23.07L6.89 18.67Z" fill="#111111" fill-opacity="1.000000" fill-rule="nonzero"/>
	<path d="M34.94 46.15C34.52 46.15 34.11 46.32 33.81 46.62C33.52 46.92 33.34 47.33 33.34 47.75C33.34 48.16 33.52 48.58 33.81 48.87C34.11 49.17 34.52 49.34 34.94 49.34C35.36 49.34 35.77 49.17 36.06 48.87C36.36 48.58 36.53 48.16 36.53 47.75C36.53 47.33 36.36 46.92 36.06 46.62C35.77 46.32 35.36 46.15 34.94 46.15Z" fill="#111111" fill-opacity="1.000000" fill-rule="nonzero"/>
	<path d="M39.71 46.15C39.29 46.15 38.88 46.32 38.59 46.62C38.29 46.92 38.12 47.33 38.12 47.75C38.12 48.16 38.29 48.58 38.59 48.87C38.88 49.17 39.29 49.34 39.71 49.34C40.13 49.34 40.54 49.17 40.84 48.87C41.13 48.58 41.3 48.16 41.3 47.75C41.3 47.33 41.13 46.92 40.84 46.62C40.54 46.32 40.13 46.15 39.71 46.15Z" fill="#111111" fill-opacity="1.000000" fill-rule="nonzero"/>
</svg>
